# xmcd
#
# Track frame offsets: 
#        150
#        18525
#        33000
#        56475
#        73725
#        90750
#        105487
#        118575
#        138900
#        158775
#        184275
#        208200
#        228675
#        243900
#        257100
#        279450
#
# Disc length: 3937 seconds
#
# Revision: 1
# Processed by: cddbd v1.5.2PL0 Copyright (c) Steve Scherf et al.
# Submitted via: ExactAudioCopy v1.0b4
#
DISCID=da0f5f10
DTITLE=Lynwood Slim - Hard To Kill
DYEAR=2014
DGENRE=Blues
TTITLE0=Found Love
TTITLE1=Baby Please Don't Go
TTITLE2=I Chose to Sing The Blues
TTITLE3=All of My Life
TTITLE4=Person To Person
TTITLE5=Jump With Me Baby
TTITLE6=Don't Put Me Down
TTITLE7=Call You No More
TTITLE8=Wake Up
TTITLE9=Old Honkie Tonk Piano Roll Blues
TTITLE10=Close To You
TTITLE11=Almost Free
TTITLE12=Juste Toi Et Moi
TTITLE13=You Better Believe It
TTITLE14=That's Alright (Live)
TTITLE15=Lynwood Slim
EXTD=
EXTT0=
EXTT1=
EXTT2=
EXTT3=
EXTT4=
EXTT5=
EXTT6=
EXTT7=
EXTT8=
EXTT9=
EXTT10=
EXTT11=
EXTT12=
EXTT13=
EXTT14=
EXTT15=
PLAYORDER=
